<?xml version="1.0" encoding="utf-8"?>
<!-- Generator: Adobe Illustrator 27.5.0, SVG Export Plug-In . SVG Version: 6.00 Build 0)  -->
<svg version="1.1" id="Capa_1" xmlns="http://www.w3.org/2000/svg" xmlns:xlink="http://www.w3.org/1999/xlink" x="0px" y="0px"
	 viewBox="0 0 2122 2122" style="enable-background:new 0 0 2122 2122;" xml:space="preserve">
<g>
	<path style="fill:#97AEB5;" d="M780.964,1816.073c-16.341-1.861-32.609-4.365-48.75-7.508c-5.961-1.159-13.62-2.057-20.633-4.107
		c-2.095,4.662-3.962,9.563-5.695,14.631c-10.533,30.821-38.577,47.089-57.379,72.078c-14.699,19.576-21.383,44.97-18.373,69.257
		c30.767-4.97,61.423-10.841,91.873-17.593c57.993-12.887,116.224-28.209,172.234-48.356c0.063-16.112-0.706-32.19-4.21-47.868
		c-2.097-9.376-5.365-18.61-9.753-27.194c-0.669,0.045-1.341,0.092-1.993,0.12C845.821,1820.91,813.251,1819.746,780.964,1816.073z"
		/>
	<path style="fill:#1F183C;" d="M630.133,1960.423c0.146,1.188,0.312,2.392,0.511,3.571c1.779,10.767,5.998,21.983,15.108,28.024
		c10.412,6.899,24.132,5.174,36.424,2.957c66.183-11.888,131.211-30.187,193.885-54.543c4.794-1.856,9.764-3.902,13.023-7.868
		c4.268-5.17,4.638-12.439,4.813-19.138c0.156-6.304,0.307-12.628,0.341-18.952c-56.01,20.146-114.241,35.469-172.234,48.356
		C691.556,1949.583,660.901,1955.454,630.133,1960.423z"/>
	<path style="fill:#97AEB5;" d="M383.678,1634.664c-13.759-9.018-27.157-18.572-40.161-28.643
		c-5.749-4.452-13.89-9.636-19.62-15.979c-24.069,20.748-55.865,21.544-83.981,34.011c-22.368,9.949-40.57,28.877-49.759,51.557
		c29.291,10.636,58.928,20.429,88.814,29.349c56.935,16.974,115.259,31.932,173.992,41.598c7.898-14.042,15.05-28.458,19.625-43.864
		c1.77-5.972,3.062-12.136,3.885-18.355c-2.601-0.744-5.127-1.747-7.447-2.795C439.415,1668.17,410.855,1652.472,383.678,1634.664z"
		/>
	<path style="fill:#D9D4DB;" d="M713.217,1640.019c-0.073,17.14,0.453,34.251,1.55,51.352c0.173,2.692,0.398,5.437,0.791,8.14
		c13.027-3.434,27.73-2.157,40.753-0.972c16.536,1.5,32.911,4.331,49.364,6.514c26.68,3.537,53.257,7.839,79.747,12.599
		c4.059,0.729,7.657,1.822,10.738,3.323c4.192-15.122,8.451-30.26,12.93-45.374C847.507,1649.256,780.189,1636.998,713.217,1640.019
		z"/>
	<path style="fill:#D9D4DB;" d="M944.413,1283.63l-0.302-0.263l-0.253-0.21c-1.929-1.642-3.849-3.323-5.778-4.964
		c-3.469-2.933-6.967-5.832-10.499-8.707c-15.055-12.224-30.67-23.741-46.826-34.446c-15.907-10.538-32.346-20.277-49.262-29.12
		c-2.558-1.345-5.155-2.645-7.717-3.971c-3.966-1.88-7.937-3.737-11.947-5.549c-8.482-3.82-17.052-7.425-25.719-10.801
		c-17.554-6.84-35.454-12.76-53.613-17.788c-10.236-2.821-20.56-5.389-30.943-7.649c-3.596-0.799-7.245-1.676-10.903-2.353
		c-1.082-0.161-2.402-0.361-3.148-0.488c-2.572-0.458-5.135-0.886-7.693-1.32c-32.689-5.374-65.708-8.113-98.789-8.885
		c-67.928,64.979-123.722,142.555-164.09,227.452c69.837,28.336,131.167,76.103,175.976,136.77
		c36.175-48.463,76.614-93.462,125.763-129.32c15.401-11.245,38.602-23.254,54.869-38.967
		c-27.303,65.305-45.656,134.362-54.402,204.594c75.625-4.497,151.732,5.262,223.761,28.94
		c17.871-44.453,39.727-87.083,68.541-125.836c10.781-14.505,28.041-31.753,39.067-50.411
		c-25.645-33.674-53.223-65.874-83.477-95.504C959.634,1297.598,952.043,1290.582,944.413,1283.63z"/>
	<path style="fill:#D9D4DB;" d="M716.974,1566.962c-1.793,17.905-2.938,35.859-3.434,53.852
		c68.809-2.855,137.739,9.622,201.13,36.321c6.534-21.052,13.501-41.953,21.233-62.538
		C865.417,1571.591,790.956,1562.124,716.974,1566.962z"/>
	<path style="fill:#D9D4DB;" d="M370.092,1500.118c0.203,0.01,0.386-0.023,0.592-0.011c15.737,0.994,30.801,10.363,43.864,18.499
		c14.09,8.78,27.44,18.675,41.15,28.029c22.237,15.167,44.034,30.963,65.549,47.133c3.825,2.874,6.977,5.886,9.104,9.108
		c4.066-6.303,8.111-12.61,12.236-18.901l0.005-0.019c-48.117-45.817-104.219-82.621-165.213-108.643
		C374.807,1483.542,372.385,1491.813,370.092,1500.118z"/>
	<path style="fill:#D9D4DB;" d="M408.814,1392.161c-9.442,21.189-17.924,42.787-25.408,64.741
		c62.626,26.504,120.312,64.102,169.934,110.772c9.013-13.486,18.226-26.889,27.698-40.102
		C537.944,1467.069,477.568,1419.907,408.814,1392.161z"/>
	<path style="fill:#1D57A0;" d="M1912.237,629.619c-26.465-28.59-72.984-36.663-106.938-17.564
		c-16.117,9.067-28.809,23.118-40.297,37.607c-28.238,35.635-50.957,75.357-70.874,116.229c-1.067,2.19-2.123,4.394-3.17,6.605
		c1.119,1.003,2.193,2.055,3.219,3.1c33.621,34.261,60.45,75.092,78.812,119.44c9.041-0.905,17.589-2.127,24.944-3.284
		c32.604-5.131,63.805-19.659,88.239-41.925c7.785-7.098,15.401-16.199,14.777-26.718c-0.546-9.15-7.586-17.004-15.985-20.667
		c-8.405-3.664-17.939-3.761-27.045-2.714c25.393-16.896,51.732-34.792,66.577-61.442
		C1943.452,704.249,1938.701,658.213,1912.237,629.619z"/>
	<path style="fill:#D9D4DB;" d="M1599.135,843.703c-2.477-2.755-7.694-6.917-12.43-11.558
		c-81.379,26.887-165.736,44.789-251.043,53.132c12.585,25.486,32.638,47.415,55.41,64.77c30.231,23.05,65.233,38.85,100.2,53.725
		c14.343,6.11,28.76,12.102,43.206,17.964c18.061-7.654,35.873-15.849,53.369-24.546c6.476-3.216,35.534-18.738,67.765-37.111
		c-8.063-24.096-15.801-48.348-26.873-71.19C1620.865,872.649,1611.214,857.16,1599.135,843.703z"/>
	<path style="fill:#E83C66;" d="M1690.958,772.497c-3.618-3.244-7.732-5.936-12.47-5.914c-3.396,0.014-6.601,1.447-9.691,2.855
		c-16.428,7.498-32.862,14.991-49.291,22.49c-9.072,4.136-40.171,12.321-42.232,23.415c-0.982,5.29,3.893,11.375,9.431,16.803
		c4.736,4.641,9.953,8.803,12.43,11.558c12.078,13.457,21.73,28.945,29.603,45.184c11.072,22.842,18.81,47.095,26.873,71.19
		c1.294,3.863,2.593,7.723,3.918,11.572c1.082,3.138,2.461,6.592,5.491,7.951c3.118,1.398,6.724,0.01,9.842-1.398
		c33.832-15.245,66.411-33.262,97.315-53.813c2.806-1.866,5.769-3.971,6.879-7.152c1.17-3.367-0.039-7.055-1.291-10.397
		c-1.488-3.976-3.155-7.882-4.778-11.805c-18.362-44.348-45.191-85.179-78.812-119.44
		C1693.15,774.551,1692.076,773.499,1690.958,772.497z"/>
	<path style="fill:#97AEB5;" d="M1391.073,950.047c-22.772-17.354-42.825-39.284-55.41-64.77
		c-14.295,1.405-28.624,2.523-42.967,3.392c0.132,1.581,0.239,3.177,0.239,4.827c0,27.211-24.886,56.613-53.92,53.919
		c-3.224-0.299-6.422-0.642-9.631-0.968c-0.717,46.445-8.212,93.593-17.57,138.98c-0.706,3.422-1.447,6.844-2.176,10.266
		c7.949,0.131,16.277-0.178,25.001-0.785c102.699-7.211,204.823-32.848,299.839-73.174c-14.446-5.861-28.863-11.854-43.206-17.964
		C1456.305,988.897,1421.304,973.096,1391.073,950.047z"/>
	<path style="fill:#1D57A0;" d="M568.482,376.22c0.548-2.383,1.082-4.768,1.598-7.147c9.632-44.438,16.356-89.7,16.209-135.166
		c-0.058-18.495-1.344-37.384-8.399-54.475c-14.86-36.014-56.404-58.446-94.884-52.351c-38.48,6.09-70.695,39.328-76.853,77.798
		c-4.819,30.119,4.803,60.473,14.304,89.461c-6.504-6.46-14.06-12.283-22.928-14.601c-8.867-2.319-19.259-0.502-25.344,6.348
		c-6.997,7.878-6.65,19.742-4.921,30.134c5.423,32.609,20.95,63.327,43.396,87.527c5.062,5.457,11.023,11.705,17.566,18.007
		c41.861-23.486,88.2-38.972,135.812-45.091C565.491,376.478,566.985,376.316,568.482,376.22z"/>
	<path style="fill:#D9D4DB;" d="M739.819,656.8c2.494-0.955,4.892-1.92,7.24-2.86c-49.509-51.201-94.271-106.979-133.578-166.359
		c-6.587,0.716-13.254,0.759-16.901,1.394c-17.817,3.094-34.982,9.296-51.21,17.184c-22.83,11.098-43.912,25.368-65.155,39.311
		c13.956,34.378,27.185,64.553,30.28,71.086c14.105,29.735,29.754,58.875,46.874,87.181c18.89-2.836,34.042-5.461,38.943-6.319
		C645.588,688.848,693.178,674.671,739.819,656.8z"/>
	<path style="fill:#E83C66;" d="M596.579,488.975c3.647-0.635,10.314-0.678,16.901-1.394c7.714-0.839,15.315-2.603,17.817-7.37
		c5.242-9.988-14.129-35.659-18.694-44.521c-8.273-16.054-16.546-32.107-24.823-48.161c-1.554-3.015-3.182-6.129-5.842-8.238
		c-3.711-2.949-8.608-3.38-13.456-3.07c-1.497,0.096-2.991,0.257-4.444,0.443c-47.612,6.119-93.951,21.605-135.812,45.091
		c-3.703,2.077-7.428,4.116-11.057,6.319c-3.05,1.851-6.28,4-7.445,7.371c-1.096,3.191-0.068,6.675,0.979,9.881
		c11.571,35.255,26.027,69.569,43.172,102.475c1.583,3.035,3.552,6.359,6.869,7.187c3.22,0.809,6.446-1.053,9.233-2.85
		c3.421-2.204,6.831-4.432,10.237-6.667c21.242-13.943,42.325-28.213,65.155-39.311
		C561.598,498.272,578.762,492.069,596.579,488.975z"/>
	<path style="fill:#97AEB5;" d="M776.55,726.412c-5.55-14.276-2.198-27.473,5.797-37.592c-11.996-11.386-23.789-22.987-35.287-34.88
		c-2.348,0.94-4.746,1.905-7.24,2.86c-46.641,17.871-94.231,32.048-143.508,40.619c-4.901,0.858-20.053,3.483-38.943,6.319
		c46.529,77.009,103.888,147.902,170.207,208.078c0.488,0.444,0.972,0.862,1.459,1.3c28.918-44.98,55.642-91.598,77.729-140.315
		C794.145,759.545,783.578,744.495,776.55,726.412z"/>
	<path style="fill:#D9D4DB;" d="M1229.384,946.448c-85.992-8.745-166.51-27.321-246.179-62.257
		c-39.069-17.135-76.648-37.715-112.195-61.296c-22.94-15.22-45.805-30.721-64.247-50.095
		c-22.087,48.717-48.81,95.335-77.729,140.315c-0.412,0.64-0.809,1.291-1.22,1.93c-28.502,44.205-58.626,87.542-93.111,127.323
		c-8.453,9.749-17.15,19.318-25.968,28.765c33.783,1.91,67.347,6.046,100.76,12.511c80.687,15.625,157.812,47.888,225.34,94.884
		c69.311,48.229,128.097,110.187,178.606,177.51c49.459-78.324,76.815-169.248,96.197-260.344c0.728-3.423,1.469-6.844,2.176-10.266
		C1221.172,1040.041,1228.666,992.892,1229.384,946.448z"/>
	<path style="fill:#D9D4DB;" d="M935.078,729.633c13.164,8.335,26.641,16.14,40.293,23.621c22.665-6.68,45.051-14.297,67.095-22.808
		c-152.22-56.181-237.121-211.365-190.204-351.312c34.558-103.069,131.123-169.675,241.671-178.889
		c42.719-3.571,87.537,1.452,131.639,16.239c82.066,27.512,145.556,83.485,181.07,150.896c2.683-16.414,4.12-33.026,3.996-49.732
		c-0.302-41.725-9.822-82.65-24.818-121.432c-164.911-120.049-396.292-86.402-520.009,76.891
		c-89.635,118.314-98.347,272.598-35.447,396.652c0.801,0.13,1.603,0.267,2.394,0.443
		C871.273,678.749,902.381,708.931,935.078,729.633z"/>
	<path style="fill:#97AEB5;" d="M1406.643,367.38c32.988,62.617,41.847,135.1,18.773,203.914
		c-21.827,65.106-68.424,115.669-127.624,146.387c-70.767,36.726-159.532,45.13-245.695,16.239c-3.254-1.091-6.433-2.295-9.63-3.475
		c-22.044,8.511-44.43,16.128-67.095,22.808c18.94,10.378,38.268,20.042,58.016,28.813c63.883,28.375,135.975,50.109,205.627,57.51
		c15.391,1.637,29.55,7.803,39.511,17.907c55.442-17.539,107.223-48.017,150.411-90.827c-5.618-0.804-11.019-3.761-15.993-9.623
		c-7.961-9.388-10.065-22.416-10.056-34.728c0.039-36.39,15.586-70.787,31.562-103.484c15.245-31.191,32.058-63.152,59.781-84.058
		c11.22-8.458,26.689-14.894,38.972-8.059c2.266,1.262,4.127,2.932,5.793,4.778c10.385-123.905-40.87-250.287-147.313-330.92
		c-1.944-1.467-3.902-2.919-5.861-4.346c14.997,38.782,24.517,79.707,24.818,121.432
		C1410.763,334.354,1409.326,350.966,1406.643,367.38z"/>
	<path style="fill:#1F183C;" d="M1297.792,717.682c59.201-30.718,105.797-81.281,127.624-146.387
		c23.073-68.815,14.215-141.297-18.773-203.914c-35.514-67.412-99.005-123.385-181.07-150.896
		c-44.102-14.787-88.921-19.81-131.639-16.239c-110.548,9.213-207.113,75.82-241.671,178.889
		c-46.917,139.946,37.984,295.131,190.204,351.312c3.196,1.179,6.375,2.384,9.63,3.475
		C1138.259,762.812,1227.024,754.408,1297.792,717.682z"/>
	<path style="fill:#1F183C;" d="M776.55,726.412c7.028,18.082,17.596,33.133,30.214,46.388
		c18.442,19.374,41.307,34.875,64.247,50.095c35.547,23.581,73.126,44.161,112.195,61.296
		c79.669,34.936,160.187,53.512,246.179,62.257c3.208,0.326,6.407,0.669,9.631,0.968c29.033,2.694,53.92-26.709,53.92-53.919
		c0-1.65-0.107-3.246-0.239-4.827c-1.059-12.726-6.29-23.192-14.17-31.186c-9.961-10.104-24.119-16.269-39.511-17.907
		c-69.651-7.401-141.744-29.135-205.627-57.51c-19.748-8.771-39.076-18.435-58.016-28.813
		c-13.652-7.481-27.129-15.286-40.293-23.621c-32.697-20.702-63.805-50.884-102.319-59.43c-0.791-0.176-1.593-0.313-2.394-0.443
		c-17.499-2.825-37.095,5.236-48.018,19.061C774.351,698.94,770.999,712.136,776.55,726.412z"/>
	<path style="fill:#1F183C;" d="M1533.202,526.705c-12.283-6.835-27.752-0.399-38.972,8.059
		c-27.722,20.906-44.536,52.867-59.781,84.058c-15.976,32.697-31.523,67.094-31.562,103.484
		c-0.009,12.312,2.095,25.34,10.056,34.728c4.974,5.862,10.375,8.819,15.993,9.623c29.209,4.181,64.329-50.691,76.285-68.302
		c27.342-40.258,45.477-87.888,43.284-137.115c-0.47-10.573-2.715-22.226-9.51-29.756
		C1537.328,529.636,1535.467,527.967,1533.202,526.705z"/>
	<path style="fill:#E83C66;" d="M934.835,1178.529c-67.528-46.996-144.653-79.259-225.34-94.884
		c-33.413-6.465-66.977-10.602-100.76-12.511c-17.471-1.018-34.996-1.447-52.584-1.262c-20.122,0.209-40.38,14.665-40.619,36.419
		c-0.166,15.42,8.945,31.61,23.206,37.895c4.019,1.774,8.462,2.777,13.218,2.724c9.689-0.099,19.378-0.02,29.064,0.206
		c33.081,0.773,66.1,3.511,98.789,8.885c2.558,0.434,5.121,0.862,7.693,1.32c0.745,0.127,2.066,0.327,3.148,0.488
		c3.659,0.677,7.308,1.554,10.903,2.353c10.383,2.26,20.707,4.828,30.943,7.649c18.158,5.028,36.058,10.947,53.613,17.788
		c8.667,3.376,17.237,6.982,25.719,10.801c4.01,1.813,7.981,3.669,11.947,5.549c2.562,1.326,5.159,2.626,7.717,3.971
		c16.916,8.843,33.355,18.582,49.262,29.12c16.156,10.704,31.771,22.222,46.826,34.446c3.532,2.875,7.031,5.774,10.499,8.707
		c1.929,1.642,3.849,3.323,5.778,4.964l0.253,0.21l0.302,0.263c7.63,6.953,15.221,13.968,22.616,21.203
		c30.253,29.63,57.832,61.83,83.477,95.504c3.627,4.764,7.218,9.557,10.77,14.376c0.95,1.296,2.012,2.485,3.147,3.596
		c13.237,12.736,38.178,12.516,51.255,0.068c16.194-15.435,16.467-37.037,3.649-54.431c-1.939-2.641-3.903-5.271-5.886-7.907
		C1062.932,1288.716,1004.145,1226.758,934.835,1178.529z"/>
	<path style="fill:#97AEB5;" d="M1073.992,978.739c-4.351-4.492-9.973-7.513-15.557-10.324
		c-46.236-23.279-96.872-37.452-141.559-63.586c-20.219-11.829-43.069-26.626-65.194-18.928
		c-15.698,5.461-25.461,20.75-34.007,35.011c-9.506,15.864-19.006,31.727-28.511,47.59c-6.928,11.567-13.968,23.406-16.76,36.595
		c-2.792,13.189-0.604,28.215,8.93,37.749c6.733,6.738,16.122,9.915,25.003,13.359c50.154,19.445,93.204,53.135,137.617,83.479
		c12.282,8.385,25.359,16.784,40.151,18.319c48.55,5.038,81.198-86.294,93.286-121.213
		C1084.082,1017.467,1088.213,993.433,1073.992,978.739z"/>
	<path style="fill:#97AEB5;" d="M1161.509,1021.082c-12.19,78.412-41.652,151.659-87.23,216.623
		c-7.142,10.178,9.564,19.825,16.643,9.73c46.431-66.172,76.76-141.34,89.174-221.228
		C1181.982,1014.071,1163.409,1008.843,1161.509,1021.082z"/>
	<path style="fill:#97AEB5;" d="M1109.353,1104.512c12.404,0,12.424-19.279,0-19.279
		C1096.949,1085.233,1096.929,1104.512,1109.353,1104.512z"/>
	<path style="fill:#97AEB5;" d="M1078.454,1149.184c-12.404,0-12.424,19.279,0,19.279
		C1090.859,1168.463,1090.878,1149.184,1078.454,1149.184z"/>
	<path style="fill:#97AEB5;" d="M587.683,521.312c-26.855,8.925-51.045,22.387-72.935,40.297
		c-9.603,7.864,4.102,21.427,13.632,13.632c19.23-15.736,40.857-27.508,64.424-35.337
		C604.521,536.011,599.502,517.385,587.683,521.312z"/>
	<path style="fill:#97AEB5;" d="M1584.13,868.415c-6.499-10.543-23.181-0.872-16.648,9.73c14.534,23.581,23.508,48.799,27.415,76.2
		c1.744,12.234,20.322,7.03,18.587-5.126C1609.367,920.351,1599.418,893.224,1584.13,868.415z"/>
	<path style="fill:#97AEB5;" d="M786.991,1327.722c-39.927-34.397-66.202-78.757-77.12-130.319
		c-2.567-12.131-21.154-6.996-18.587,5.125c11.528,54.461,39.898,102.49,82.081,138.826
		C782.718,1349.413,796.413,1335.834,786.991,1327.722z"/>
	<path style="fill:#97AEB5;" d="M719.137,1547.644c-0.814,6.436-1.525,12.862-2.163,19.318
		c73.983-4.838,148.443,4.629,218.928,27.635c2.25-6.042,4.589-12.049,6.996-18.012
		C870.869,1552.906,794.762,1543.147,719.137,1547.644z"/>
	<path style="fill:#97AEB5;" d="M713.539,1620.813c-0.215,6.392-0.312,12.808-0.322,19.206
		c66.972-3.021,134.29,9.237,195.873,35.581c1.842-6.158,3.703-12.321,5.579-18.465
		C851.278,1630.436,782.348,1617.958,713.539,1620.813z"/>
	<path style="fill:#97AEB5;" d="M416.93,1374.567c-2.792,5.837-5.491,11.703-8.117,17.593
		c68.755,27.746,129.13,74.909,172.224,135.41c3.897-5.442,7.873-10.865,11.868-16.234
		C548.097,1450.67,486.767,1402.904,416.93,1374.567z"/>
	<path style="fill:#97AEB5;" d="M377.379,1475.313c60.994,26.022,117.096,62.826,165.213,108.643
		c3.552-5.438,7.143-10.865,10.748-16.283c-49.622-46.67-107.308-84.268-169.934-110.772
		C381.32,1463.011,379.303,1469.145,377.379,1475.313z"/>
	<path style="fill:#1D57A0;" d="M842.854,987.148c-10.797-6.07-25.954,0.4-33.847,14.451c-7.898,14.047-5.549,30.358,5.252,36.429
		c10.797,6.066,25.954-0.4,33.852-14.451C856.009,1009.525,853.656,993.214,842.854,987.148z"/>
	<path style="fill:#1F183C;" d="M887.244,957.754c8.478-13.71,6.812-30.104-3.722-36.619c-10.533-6.519-25.948-0.687-34.426,13.018
		c-8.478,13.71-6.812,30.105,3.722,36.618C863.351,977.292,878.766,971.46,887.244,957.754z"/>
	<path style="fill:#1F183C;" d="M1025.812,1007.986c-33.15-22.338-69.379-38.27-108.219-47.674
		c-12.054-2.918-17.194,15.669-5.126,18.587c37.413,9.062,71.708,24.229,103.61,45.734
		C1026.396,1031.586,1036.053,1014.895,1025.812,1007.986z"/>
	<path style="fill:#1F183C;" d="M979.848,1070.246c-33.818-17.218-68.312-32.892-103.469-47.167
		c-11.488-4.668-16.487,13.973-5.125,18.587c33.617,13.651,66.533,28.765,98.865,45.228
		C981.149,1092.507,990.917,1075.884,979.848,1070.246z"/>
	<path style="fill:#1F183C;" d="M690.158,814.086l-1.198-0.4c-4.784-1.603-10.743,1.846-11.854,6.733
		c-1.213,5.325,1.608,10.139,6.733,11.854l1.194,0.404c4.784,1.603,10.748-1.851,11.859-6.733
		C698.104,820.615,695.283,815.806,690.158,814.086z"/>
	<path style="fill:#1F183C;" d="M647.493,766.471l-1.199-0.404c-4.784-1.603-10.743,1.851-11.853,6.733
		c-1.218,5.33,1.607,10.139,6.728,11.858l1.198,0.4c4.785,1.608,10.748-1.846,11.859-6.733
		C655.439,772.999,652.618,768.186,647.493,766.471z"/>
	<path style="fill:#1F183C;" d="M1322.196,1047.308l-1.199-0.404c-4.784-1.603-10.743,1.851-11.854,6.733
		c-1.213,5.33,1.608,10.139,6.733,11.858l1.193,0.4c4.785,1.603,10.748-1.846,11.859-6.733
		C1330.142,1053.837,1327.321,1049.024,1322.196,1047.308z"/>
	<path style="fill:#1F183C;" d="M1392.544,1028.254l-1.194-0.404c-4.784-1.603-10.748,1.851-11.858,6.733
		c-1.213,5.33,1.607,10.139,6.733,11.858l1.198,0.4c4.785,1.603,10.743-1.846,11.854-6.733
		C1400.49,1034.782,1397.67,1029.969,1392.544,1028.254z"/>
	<path style="fill:#1F183C;" d="M955.453,1432.468c-1.213,5.33,1.608,10.139,6.733,11.859l1.564,0.526
		c4.784,1.603,10.743-1.851,11.859-6.733c1.213-5.33-1.613-10.139-6.734-11.858l-1.564-0.526
		C962.528,1424.131,956.564,1427.586,955.453,1432.468z"/>
	<path style="fill:#1F183C;" d="M929.685,1488.458c-12.404,0-12.424,19.279,0,19.279
		C942.089,1507.737,942.109,1488.458,929.685,1488.458z"/>
	<path style="fill:#E83C66;" d="M521.247,1593.768c-21.515-16.17-43.313-31.966-65.549-47.133
		c-13.71-9.354-27.06-19.25-41.15-28.029c-13.062-8.136-28.127-17.505-43.864-18.499c-0.206-0.012-0.389,0.021-0.592,0.011
		c-31.34-1.449-42.368,38.457-50.272,62.075c-1.676,5.018-3.382,10.285-2.529,15.508c0.745,4.566,3.269,8.65,6.607,12.342
		c5.729,6.343,13.871,11.527,19.62,15.979c13.003,10.071,26.402,19.625,40.161,28.643c27.176,17.808,55.737,33.506,85.349,46.879
		c2.32,1.048,4.846,2.052,7.447,2.795c4.819,1.38,9.906,1.832,14.492-0.228c7.722-3.469,10.392-12.511,13.169-19.796
		c4.307-11.294,10.465-21.735,17.447-31.562c2.09-2.948,4.823-5.983,7.181-9.189c5.881-7.991,5.532-14.709,1.586-20.69
		C528.224,1599.654,525.071,1596.642,521.247,1593.768z"/>
	<path style="fill:#E83C66;" d="M805.675,1705.052c-16.453-2.183-32.828-5.013-49.364-6.514
		c-13.023-1.184-27.726-2.462-40.753,0.972c-2.299,0.606-4.565,1.313-6.74,2.243c-29.31,12.521-21.082,53.525-17.491,78.329
		c0.76,5.238,1.608,10.709,4.721,14.987c3.493,4.804,9.256,7.554,15.532,9.388c7.013,2.05,14.672,2.948,20.633,4.107
		c16.142,3.143,32.409,5.647,48.75,7.508c32.288,3.673,64.857,4.838,97.32,3.459c0.652-0.027,1.324-0.074,1.993-0.12
		c6.792-0.464,14.314-1.989,18.752-7.461c5.335-6.573,3.649-15.844,2.855-23.601c-1.237-12.02-0.433-24.117,1.374-36.039
		c0.546-3.567,1.622-7.513,2.285-11.435c1.78-10.511-2.254-16.43-9.383-19.903c-3.082-1.501-6.68-2.593-10.738-3.323
		C858.932,1712.891,832.355,1708.589,805.675,1705.052z"/>
	<path style="fill:#1F183C;" d="M190.158,1675.61c-0.453,1.111-0.892,2.241-1.291,3.371c-3.688,10.271-5.466,22.119-0.448,31.835
		c5.739,11.094,18.563,16.263,30.382,20.312c63.601,21.832,129.311,37.496,195.912,46.733c5.091,0.706,10.431,1.339,15.206-0.536
		c6.246-2.441,10.105-8.609,13.525-14.378c3.201-5.432,6.411-10.884,9.52-16.389c-58.733-9.666-117.057-24.624-173.992-41.598
		C249.086,1696.038,219.449,1686.245,190.158,1675.61z"/>
	<path style="fill:#1F183C;" d="M425.627,1689.388c-3.218-1.696-8.073-1.625-11.094,0.784c-2.523,1.129-4.588,3.211-5.237,6.057
		c-1.135,4.984,1.496,10.563,6.733,11.859c4.804,1.189,10.948-0.609,13.057-5.51
		C431.069,1697.958,430.611,1692.024,425.627,1689.388z"/>
	<path style="fill:#1F183C;" d="M861.174,1856.218c-5.33-1.213-10.139,1.608-11.859,6.733l-0.273,0.819
		c-1.607,4.784,1.846,10.743,6.733,11.859c5.325,1.213,10.139-1.613,11.854-6.733l0.278-0.824
		C869.51,1863.288,866.06,1857.329,861.174,1856.218z"/>
	<path style="fill:#C8C1E1;" d="M958.284,506.671c4.034-13.915,1.427-30.558,4.536-45.008c3.737-17.388,10.265-34.168,18.154-50.07
		c15.347-30.938,35.824-59.001,53.446-88.696c7.27-12.254,14.183-27.342,7.932-40.141c-4.473-9.169-14.938-14.324-25.13-14.743
		c-10.188-0.424-20.132,3.186-29.257,7.751c-34.397,17.199-60.589,48.463-76.014,83.693c-15.43,35.23-20.706,74.251-20.19,112.706
		c0.205,15.25,1.579,31.342,10.28,43.868C918.138,539.197,950.805,532.449,958.284,506.671z"/>
	<path style="fill:#C8C1E1;" d="M997.139,591.733c-8.312-8.433-13.963-23.06-25.106-28.136
		c-13.379-6.095-31.552,0.794-38.417,13.389c-7.888,14.47-1.092,31.659,6.991,44.424c6.87,10.85,15.377,20.867,26.066,27.981
		c10.695,7.113,23.732,11.152,36.482,9.612c13.676-1.651,27.596-12.107,27.425-25.886
		C1030.343,614.15,1008.72,603.48,997.139,591.733z"/>
	<path style="fill:#C8C1E1;" d="M1439.998,733.375c0.419-73.5,31.859-127.439,81.744-179.059c2.119-2.197-0.648-6.124-3.362-4.351
		c-57.939,37.93-88.385,116.102-86.095,183.41C1432.457,738.32,1439.969,738.354,1439.998,733.375z"/>
	<path style="fill:#C8C1E1;" d="M1220.179,863.075c-0.916,9.969-0.18,19.644-2.724,29.476c-2.29,8.853-6.879,16.463-10.343,24.799
		c-1.184,2.845,3.006,4.799,4.936,2.87c13.116-13.111,19.747-40.36,13.34-57.846C1224.34,859.518,1220.457,860.059,1220.179,863.075
		z"/>
	<path style="fill:#C8C1E1;" d="M1113.217,869.033c-2.09,11.464-7.152,21.637-13.427,31.347c-1.944,3.016,2.441,6.3,4.921,3.801
		c9.374-9.457,15.391-21.515,17.661-34.66c1.705-9.856,3.605-24.565-4.234-32.092c-1.228-1.179-3.094-0.58-3.625,0.96
		C1111.312,847.689,1115.044,859.026,1113.217,869.033z"/>
	<path style="fill:#C8C1E1;" d="M995.327,857.618c0.999,3.03,5.16,3.03,6.159,0c3.069-9.296,3.337-18.909,7.235-28.132
		c4.122-9.74,10.665-18.08,17.802-25.803c2.543-2.748-0.77-7.63-4.16-5.393C1005.456,809.448,988.389,836.576,995.327,857.618z"/>
	<path style="fill:#C8C1E1;" d="M892.905,764.478c-5.793,9.349-11.44,26.309-3.834,35.83c0.702,0.881,2.358,0.599,2.835-0.366
		c4.541-9.159,3.06-19.805,8.336-29.233c5.832-10.412,14.763-14.913,24.034-21.564c2.285-1.642,1.861-6.28-1.612-5.954
		C910.255,744.366,899.283,754.188,892.905,764.478z"/>
	<path style="fill:#C8C1E1;" d="M823.682,754.164c0.434,1.637,3.074,2.202,3.854,0.507c3.966-8.658,5.768-17.886,11.089-25.973
		c5.959-9.057,14.519-15.922,23.81-21.34c2.86-1.666,0.974-6.349-2.276-5.394C840.418,707.752,817.802,731.972,823.682,754.164z"/>
</g>
</svg>
